<?xml version="1.0" encoding="utf-8"?>
<!-- Generator: Adobe Illustrator 24.1.1, SVG Export Plug-In . SVG Version: 6.00 Build 0)  -->
<svg version="1.1" id="Layer_1" xmlns="http://www.w3.org/2000/svg" xmlns:xlink="http://www.w3.org/1999/xlink" x="0px" y="0px"
	 viewBox="0 0 512 512" style="enable-background:new 0 0 512 512;" xml:space="preserve">
<style type="text/css">
	.st0{fill-rule:evenodd;clip-rule:evenodd;}
</style>
<g>
	<path class="st0" d="M68.3,34.1c-18.8,0-34.1,15.3-34.1,34.1v34.1c0,18.8,15.3,34.1,34.1,34.1h17.1v307.2
		c0,37.7,30.6,68.3,68.3,68.3h204.8c37.7,0,68.3-30.6,68.3-68.3V136.5h17.1c18.8,0,34.1-15.3,34.1-34.1V68.3
		c0-18.8-15.3-34.1-34.1-34.1H324.3C324.3,15.3,309,0,290.1,0h-68.3c-18.8,0-34.1,15.3-34.1,34.1H68.3z M170.7,170.7
		c9.4,0,17.1,7.6,17.1,17.1v238.9c0,9.4-7.6,17.1-17.1,17.1c-9.4,0-17.1-7.6-17.1-17.1V187.7C153.6,178.3,161.2,170.7,170.7,170.7z
		 M256,170.7c9.4,0,17.1,7.6,17.1,17.1v238.9c0,9.4-7.6,17.1-17.1,17.1c-9.4,0-17.1-7.6-17.1-17.1V187.7
		C238.9,178.3,246.6,170.7,256,170.7z M358.4,187.7c0-9.4-7.6-17.1-17.1-17.1c-9.4,0-17.1,7.6-17.1,17.1v238.9
		c0,9.4,7.6,17.1,17.1,17.1c9.4,0,17.1-7.6,17.1-17.1V187.7z"/>
</g>
</svg>
